<svg xmlns="http://www.w3.org/2000/svg" width="29" height="29" viewBox="0 0 29 29"><g><g><g><path fill="#707070" d="M25.125 22.083a14.333 14.333 0 0 0-2.975-1.493 21.51 21.51 0 0 0 .717-4.701h4.504a12.427 12.427 0 0 1-2.24 6.192zm-6.347 4.697l.005-.001-.005.005zm3.06-5.143a13.1 13.1 0 0 1 2.629 1.298 12.57 12.57 0 0 1-5.684 3.844 12.696 12.696 0 0 0 3.054-5.142zm-6.39-1.16c1.81.035 3.609.307 5.348.81-1.114 3.37-3.074 5.724-5.347 6.076zm.002-4.594v.003h-.001zm6.302.003a20.946 20.946 0 0 1-.643 4.36 21.329 21.329 0 0 0-5.66-.88v-3.48zm-6.303-5.48a21.373 21.373 0 0 0 5.654-.877c.44 1.71.665 3.469.668 5.234H15.45zm0-8.007c2.273.35 4.23 2.706 5.343 6.076a20.708 20.708 0 0 1-5.343.81zm6.387 5.738a12.735 12.735 0 0 0-3.058-5.158 12.565 12.565 0 0 1 5.691 3.851c-.826.533-1.71.972-2.633 1.307zm1.057 6.626a21.708 21.708 0 0 0-.742-5.59 14.41 14.41 0 0 0 2.98-1.493 12.444 12.444 0 0 1 2.295 7.083zm-8.564-5.48a20.674 20.674 0 0 1-5.403-.826c1.12-3.394 3.106-5.753 5.403-6.067zm-6.393 5.48c.004-1.772.231-3.537.675-5.253 1.856.556 3.779.857 5.716.895v4.358zm6.393 4.591c-1.94.038-3.864.34-5.722.897a20.768 20.768 0 0 1-.65-4.368h6.369zm0 8.025c-2.299-.315-4.282-2.676-5.407-6.076a20.674 20.674 0 0 1 5.407-.829zM5.31 22.93c.808-.52 1.67-.949 2.572-1.28a12.759 12.759 0 0 0 3.018 5.103 12.56 12.56 0 0 1-5.59-3.82zm-2.907-7.048h4.435c.065 1.597.308 3.181.724 4.724a14.296 14.296 0 0 0-2.914 1.474 12.446 12.446 0 0 1-2.245-6.198zM4.64 7.68c.912.601 1.89 1.096 2.913 1.475a21.856 21.856 0 0 0-.745 5.62H2.358a12.504 12.504 0 0 1 2.286-7.093zm3.241.438a13.01 13.01 0 0 1-2.576-1.28A12.564 12.564 0 0 1 10.9 3.003a12.8 12.8 0 0 0-3.017 5.115zM26.031 7.01a13.627 13.627 0 0 0-11.142-5.78h-.08A13.627 13.627 0 0 0 3.75 7.01a13.603 13.603 0 0 0 0 15.742 13.627 13.627 0 0 0 11.06 5.778h.079a13.627 13.627 0 0 0 11.14-5.78 13.603 13.603 0 0 0 0-15.743z"/><path fill="none" stroke="#707070" stroke-miterlimit="50" stroke-width=".5" d="M25.125 22.083a14.333 14.333 0 0 0-2.975-1.493 21.51 21.51 0 0 0 .717-4.701h4.504a12.427 12.427 0 0 1-2.24 6.192zm-6.347 4.697l.005-.001-.005.005zm3.06-5.143a13.1 13.1 0 0 1 2.629 1.298 12.57 12.57 0 0 1-5.684 3.844 12.696 12.696 0 0 0 3.054-5.142zm-6.39-1.16c1.81.035 3.609.307 5.348.81-1.114 3.37-3.074 5.724-5.347 6.076zm.002-4.594v.003h-.001zm6.302.003a20.946 20.946 0 0 1-.643 4.36 21.329 21.329 0 0 0-5.66-.88v-3.48zm-6.303-5.48a21.373 21.373 0 0 0 5.654-.877c.44 1.71.665 3.469.668 5.234H15.45zm0-8.007c2.273.35 4.23 2.706 5.343 6.076a20.708 20.708 0 0 1-5.343.81zm6.387 5.738a12.735 12.735 0 0 0-3.058-5.158 12.565 12.565 0 0 1 5.691 3.851c-.826.533-1.71.972-2.633 1.307zm1.057 6.626a21.708 21.708 0 0 0-.742-5.59 14.41 14.41 0 0 0 2.98-1.493 12.444 12.444 0 0 1 2.295 7.083zm-8.564-5.48a20.674 20.674 0 0 1-5.403-.826c1.12-3.394 3.106-5.753 5.403-6.067zm-6.393 5.48c.004-1.772.231-3.537.675-5.253 1.856.556 3.779.857 5.716.895v4.358zm6.393 4.591c-1.94.038-3.864.34-5.722.897a20.768 20.768 0 0 1-.65-4.368h6.369zm0 8.025c-2.299-.315-4.282-2.676-5.407-6.076a20.674 20.674 0 0 1 5.407-.829zM5.31 22.93c.808-.52 1.67-.949 2.572-1.28a12.759 12.759 0 0 0 3.018 5.103 12.56 12.56 0 0 1-5.59-3.82zm-2.907-7.048h4.435c.065 1.597.308 3.181.724 4.724a14.296 14.296 0 0 0-2.914 1.474 12.446 12.446 0 0 1-2.245-6.198zM4.64 7.68c.912.601 1.89 1.096 2.913 1.475a21.856 21.856 0 0 0-.745 5.62H2.358a12.504 12.504 0 0 1 2.286-7.093zm3.241.438a13.01 13.01 0 0 1-2.576-1.28A12.564 12.564 0 0 1 10.9 3.003a12.8 12.8 0 0 0-3.017 5.115zM26.031 7.01a13.627 13.627 0 0 0-11.142-5.78h-.08A13.627 13.627 0 0 0 3.75 7.01a13.603 13.603 0 0 0 0 15.742 13.627 13.627 0 0 0 11.06 5.778h.079a13.627 13.627 0 0 0 11.14-5.78 13.603 13.603 0 0 0 0-15.743z"/></g></g></g></svg>