<svg xmlns="http://www.w3.org/2000/svg" width="37" height="31" viewBox="0 0 37 31">
  <g id="Group_262" data-name="Group 262" transform="translate(0.201 -0.246)">
    <g id="Polygon_1" data-name="Polygon 1" transform="translate(-0.201 0.246)" fill="none">
      <path d="M14.206,7.195a5,5,0,0,1,8.587,0l9.693,16.243A5,5,0,0,1,28.193,31H8.807a5,5,0,0,1-4.294-7.562Z" stroke="none"/>
      <path d="M 18.5 6.756908416748047 C 17.41753959655762 6.756908416748047 16.47858047485352 7.290018081665039 15.92387008666992 8.219537734985352 L 6.230400085449219 24.46262741088867 C 5.66996955871582 25.4017276763916 5.657739639282227 26.53016662597656 6.197700500488281 27.48118782043457 C 6.737649917602539 28.43221855163574 7.712919235229492 28.99999809265137 8.806539535522461 28.99999809265137 L 28.19346046447754 28.99999809265137 C 29.28707885742188 28.99999809265137 30.26235008239746 28.43221855163574 30.80229949951172 27.48118782043457 C 31.34226036071777 26.53016662597656 31.33003044128418 25.4017276763916 30.76959037780762 24.46262741088867 L 21.07612991333008 8.219528198242188 C 20.52141952514648 7.290018081665039 19.58246040344238 6.756908416748047 18.5 6.756908416748047 M 18.5 4.756908416748047 C 20.1618595123291 4.756908416748047 21.8237190246582 5.569477081298828 22.79356002807617 7.194618225097656 L 32.48701858520508 23.43770790100098 C 34.47595977783203 26.7705192565918 32.07463073730469 30.99999809265137 28.19346046447754 30.99999809265137 L 8.806539535522461 30.99999809265137 C 4.925369262695312 30.99999809265137 2.524040222167969 26.7705192565918 4.512981414794922 23.43770790100098 L 14.20643997192383 7.194618225097656 C 15.17627906799316 5.569477081298828 16.8381404876709 4.756908416748047 18.5 4.756908416748047 Z" stroke="none" fill="#ed6d01"/>
    </g>
    <path id="Path_212" data-name="Path 212" d="M-2085.5,886.918v8.68" transform="translate(2103.799 -874.902)" fill="none" stroke="#ed6d01" stroke-linecap="round" stroke-width="2"/>
    <circle id="Ellipse_42" data-name="Ellipse 42" cx="1.5" cy="1.5" r="1.5" transform="translate(16.799 23.246)" fill="#ed6d01"/>
  </g>
</svg>
