<?xml version="1.0" encoding="UTF-8"?>
<svg width="30px" height="29px" viewBox="0 0 30 29" version="1.1" xmlns="http://www.w3.org/2000/svg" xmlns:xlink="http://www.w3.org/1999/xlink">
    <!-- Generator: Sketch 60.1 (88133) - https://sketch.com -->
    <title>Group 2</title>
    <desc>Created with Sketch.</desc>
    <g id="Page-1" stroke="none" stroke-width="1" fill="none" fill-rule="evenodd">
        <g id="04_Our-Network" transform="translate(-590.000000, -1939.000000)" fill="#ED6D00" fill-rule="nonzero">
            <g id="Group-2" transform="translate(590.000000, 1939.000000)">
                <g id="Group">
                    <path d="M29.04,5.42897727 L24.48,5.42897727 L24.48,1.01420455 C24.48,0.65625 24.24,0.417613636 23.88,0.417613636 L14.64,0.417613636 C14.28,0.417613636 14.04,0.65625 14.04,1.01420455 L14.04,5.36931818 L9.84,5.36931818 L9.84,5.30965909 C9.84,4.17613636 8.94,3.28125 7.8,3.28125 L4.62,3.28125 C3.48,3.22159091 2.52,4.17613636 2.52,5.30965909 L2.52,5.42897727 L0.96,5.42897727 C0.6,5.42897727 0.36,5.66761364 0.36,6.02556818 L0.36,25.4744318 C0.36,25.8323864 0.6,26.0710227 0.96,26.0710227 L2.58,26.0710227 L2.58,26.1903409 C2.58,27.3238636 3.48,28.21875 4.62,28.21875 L7.74,28.21875 C8.88,28.21875 9.78,27.3238636 9.78,26.1903409 L9.78,26.0710227 L28.98,26.0710227 C29.34,26.0710227 29.58,25.8323864 29.58,25.4744318 L29.58,6.02556818 C29.64,5.66761364 29.4,5.42897727 29.04,5.42897727 Z M2.52,24.8181818 L1.56,24.8181818 L1.56,6.62215909 L2.58,6.62215909 L2.58,24.8181818 L2.52,24.8181818 Z M8.64,6.02556818 C8.64,6.02556818 8.64,6.02556818 8.64,6.02556818 C8.64,6.02556818 8.64,6.02556818 8.64,6.02556818 L8.64,25.4744318 C8.64,25.4744318 8.64,25.4744318 8.64,25.4744318 C8.64,25.4744318 8.64,25.4744318 8.64,25.4744318 L8.64,26.1903409 C8.64,26.6676136 8.28,27.0255682 7.8,27.0255682 L4.62,27.0255682 C4.14,27.0255682 3.78,26.6676136 3.78,26.1903409 L3.78,25.4744318 C3.78,25.4744318 3.78,25.4744318 3.78,25.4744318 C3.78,25.4744318 3.78,25.4744318 3.78,25.4744318 L3.78,6.02556818 C3.78,6.02556818 3.78,6.02556818 3.78,6.02556818 C3.78,6.02556818 3.78,6.02556818 3.78,6.02556818 L3.78,5.30965909 C3.78,4.83238636 4.14,4.47443182 4.62,4.47443182 L7.74,4.47443182 C8.22,4.47443182 8.58,4.83238636 8.58,5.30965909 L8.58,6.02556818 L8.64,6.02556818 Z M15.24,1.61079545 L23.34,1.61079545 L23.34,5.36931818 L15.24,5.36931818 L15.24,1.61079545 Z M28.44,24.8181818 L9.84,24.8181818 L9.84,6.62215909 L28.44,6.62215909 L28.44,24.8181818 Z" id="Shape"></path>
                    <path d="M12.54,13.125 L25.98,13.125 C26.34,13.125 26.58,12.8863636 26.58,12.5284091 L26.58,9.12784091 C26.58,8.76988636 26.34,8.53125 25.98,8.53125 L12.54,8.53125 C12.18,8.53125 11.94,8.76988636 11.94,9.12784091 L11.94,12.5284091 C11.94,12.8863636 12.24,13.125 12.54,13.125 Z M13.14,9.72443182 L25.38,9.72443182 L25.38,11.9318182 L13.14,11.9318182 L13.14,9.72443182 Z" id="Shape"></path>
                    <path d="M24.54,14.9744318 L22.86,14.9744318 C22.5,14.9744318 22.26,15.2130682 22.26,15.5710227 C22.26,15.9289773 22.5,16.1676136 22.86,16.1676136 L24.54,16.1676136 C24.9,16.1676136 25.14,15.9289773 25.14,15.5710227 C25.14,15.2130682 24.9,14.9744318 24.54,14.9744318 Z" id="Path"></path>
                    <path d="M24.54,18.3153409 L22.86,18.3153409 C22.5,18.3153409 22.26,18.5539773 22.26,18.9119318 C22.26,19.2698864 22.5,19.5085227 22.86,19.5085227 L24.54,19.5085227 C24.9,19.5085227 25.14,19.2698864 25.14,18.9119318 C25.14,18.5539773 24.9,18.3153409 24.54,18.3153409 Z" id="Path"></path>
                    <path d="M24.54,21.7159091 L22.86,21.7159091 C22.5,21.7159091 22.26,21.9545455 22.26,22.3125 C22.26,22.6704545 22.5,22.9090909 22.86,22.9090909 L24.54,22.9090909 C24.9,22.9090909 25.14,22.6704545 25.14,22.3125 C25.14,21.9545455 24.9,21.7159091 24.54,21.7159091 Z" id="Path"></path>
                    <path d="M20.1,14.9744318 L18.42,14.9744318 C18.06,14.9744318 17.82,15.2130682 17.82,15.5710227 C17.82,15.9289773 18.06,16.1676136 18.42,16.1676136 L20.1,16.1676136 C20.46,16.1676136 20.7,15.9289773 20.7,15.5710227 C20.7,15.2130682 20.46,14.9744318 20.1,14.9744318 Z" id="Path"></path>
                    <path d="M20.1,18.3153409 L18.42,18.3153409 C18.06,18.3153409 17.82,18.5539773 17.82,18.9119318 C17.82,19.2698864 18.06,19.5085227 18.42,19.5085227 L20.1,19.5085227 C20.46,19.5085227 20.7,19.2698864 20.7,18.9119318 C20.7,18.5539773 20.46,18.3153409 20.1,18.3153409 Z" id="Path"></path>
                    <path d="M20.1,21.7159091 L18.42,21.7159091 C18.06,21.7159091 17.82,21.9545455 17.82,22.3125 C17.82,22.6704545 18.06,22.9090909 18.42,22.9090909 L20.1,22.9090909 C20.46,22.9090909 20.7,22.6704545 20.7,22.3125 C20.7,21.9545455 20.46,21.7159091 20.1,21.7159091 Z" id="Path"></path>
                    <path d="M15.66,14.9744318 L13.98,14.9744318 C13.62,14.9744318 13.38,15.2130682 13.38,15.5710227 C13.38,15.9289773 13.62,16.1676136 13.98,16.1676136 L15.66,16.1676136 C16.02,16.1676136 16.26,15.9289773 16.26,15.5710227 C16.26,15.2130682 15.96,14.9744318 15.66,14.9744318 Z" id="Path"></path>
                    <path d="M15.66,18.3153409 L13.98,18.3153409 C13.62,18.3153409 13.38,18.5539773 13.38,18.9119318 C13.38,19.2698864 13.62,19.5085227 13.98,19.5085227 L15.66,19.5085227 C16.02,19.5085227 16.26,19.2698864 16.26,18.9119318 C16.26,18.5539773 15.96,18.3153409 15.66,18.3153409 Z" id="Path"></path>
                    <path d="M15.66,21.7159091 L13.98,21.7159091 C13.62,21.7159091 13.38,21.9545455 13.38,22.3125 C13.38,22.6704545 13.62,22.9090909 13.98,22.9090909 L15.66,22.9090909 C16.02,22.9090909 16.26,22.6704545 16.26,22.3125 C16.26,21.9545455 15.96,21.7159091 15.66,21.7159091 Z" id="Path"></path>
                </g>
            </g>
        </g>
    </g>
</svg>