<?xml version="1.0" encoding="UTF-8"?>
<svg width="29px" height="29px" viewBox="0 0 29 29" version="1.1" xmlns="http://www.w3.org/2000/svg" xmlns:xlink="http://www.w3.org/1999/xlink">
    <!-- Generator: Sketch 60.1 (88133) - https://sketch.com -->
    <title>Shape</title>
    <desc>Created with Sketch.</desc>
    <g id="Page-1" stroke="none" stroke-width="1" fill="none" fill-rule="evenodd">
        <g id="04_Our-Network" transform="translate(-590.000000, -1902.000000)" fill="#ED6D00" fill-rule="nonzero">
            <path d="M607.170971,1921.44005 C607.624961,1920.98794 607.624961,1920.98794 608.170116,1920.44536 C608.675885,1919.94209 609.073697,1919.54671 609.327363,1919.29534 C610.591114,1918.04274 612.279252,1918.04259 613.545438,1919.29717 C614.722282,1920.46336 615.914384,1921.65484 617.127309,1922.87681 C618.408387,1924.16779 618.400218,1925.85705 617.114044,1927.15505 C616.859533,1927.41188 616.442514,1927.71746 615.875746,1928.08237 C615.749312,1928.16378 615.616433,1928.24739 615.477826,1928.33289 C615.104638,1928.56311 614.70641,1928.79712 614.308392,1929.02324 C614.069585,1929.15891 613.883255,1929.26217 613.79144,1929.31183 C612.335236,1930.15183 609.969728,1930.33366 608.452543,1929.74746 C608.300227,1929.70107 608.02793,1929.60856 607.652674,1929.46599 C607.034877,1929.23128 606.348468,1928.93868 605.610471,1928.58417 C603.505542,1927.57303 601.40143,1926.26639 599.435309,1924.63071 C598.645758,1923.97386 597.893089,1923.27473 597.18266,1922.53202 C596.609489,1921.9328 596.06471,1921.3085 595.547594,1920.66169 C593.845002,1918.53209 592.508095,1916.25304 591.494303,1913.97323 C591.138916,1913.17404 590.848973,1912.43079 590.61934,1911.76191 C590.479932,1911.35584 590.390778,1911.06137 590.366094,1910.95819 C589.795047,1909.38565 590.118754,1907.01856 591.07075,1905.62561 C591.130239,1905.53353 591.234515,1905.37558 591.37178,1905.17342 C591.600492,1904.83656 591.83822,1904.4995 592.073729,1904.18327 C592.175911,1904.04606 592.275734,1903.91545 592.372751,1903.79235 C592.621607,1903.4766 592.847502,1903.21561 593.0503,1903.01608 C594.316146,1901.77115 596.00131,1901.77289 597.269463,1903.01817 C597.786372,1903.52544 600.019269,1905.75989 600.827023,1906.5746 C602.13423,1907.89407 602.137203,1909.56189 600.831656,1910.8739 C600.635827,1911.07076 600.210394,1911.49704 599.623546,1912.08456 C599.12513,1912.58349 599.12513,1912.58349 598.710971,1912.99794 C598.497275,1913.21177 598.421406,1913.28769 598.372251,1913.33687 C598.455363,1913.54797 598.593165,1913.87419 598.780994,1914.28025 C599.144567,1915.06626 599.561191,1915.85187 600.022071,1916.58115 C600.524297,1917.37586 601.048271,1918.05295 601.583349,1918.57463 C602.07749,1919.05639 602.666924,1919.52269 603.331506,1919.96885 C604.107086,1920.48954 604.942244,1920.9555 605.777726,1921.35847 C606.210605,1921.56726 606.557947,1921.71917 606.794534,1921.81502 C606.848329,1921.76143 606.929087,1921.68099 607.170971,1921.44005 Z M616.081322,1923.91492 C614.871274,1922.69584 613.68204,1921.50722 612.508164,1920.34398 C611.81647,1919.65863 611.054176,1919.65869 610.364734,1920.34206 C610.111928,1920.59258 609.714671,1920.9874 609.21256,1921.48703 C608.664727,1922.03227 608.664727,1922.03227 608.210911,1922.48421 C607.847934,1922.84576 607.847934,1922.84576 607.757204,1922.93617 C607.396279,1923.29573 606.793355,1923.41109 606.344293,1923.22171 C606.096459,1923.1256 605.675216,1922.94517 605.13751,1922.68583 C604.243343,1922.25455 603.348852,1921.75548 602.510093,1921.19239 C601.775798,1920.69942 601.11764,1920.17876 600.554592,1919.62981 C599.927816,1919.01873 599.335625,1918.25349 598.776302,1917.36843 C598.277957,1916.57986 597.832138,1915.7392 597.443467,1914.89894 C597.209841,1914.39387 597.04603,1913.99834 596.963746,1913.78012 C596.776793,1913.31481 596.903023,1912.72222 597.254514,1912.37053 C597.337312,1912.2877 597.337312,1912.2877 597.668567,1911.95624 C598.082637,1911.54187 598.082637,1911.54187 598.579496,1911.0445 C599.166926,1910.4564 599.592034,1910.03045 599.786942,1909.83451 C600.520045,1909.09778 600.518726,1908.35732 599.780314,1907.61198 C598.977233,1906.80198 596.748044,1904.57125 596.237097,1904.06983 C595.541697,1903.38696 594.775674,1903.38617 594.083748,1904.06667 C593.932468,1904.21551 593.743967,1904.43329 593.530182,1904.70455 C593.441873,1904.8166 593.350138,1904.93663 593.255653,1905.0635 C593.034324,1905.36069 592.80852,1905.68085 592.590992,1906.00123 C592.460512,1906.1934 592.362307,1906.34216 592.298057,1906.44115 C591.600063,1907.46277 591.344157,1909.33406 591.77054,1910.51642 C591.8059,1910.64871 591.885184,1910.91059 592.013173,1911.28339 C592.229203,1911.91265 592.503533,1912.61588 592.840854,1913.37444 C593.80623,1915.54537 595.080145,1917.71704 596.698637,1919.74145 C597.188917,1920.35469 597.705035,1920.94615 598.247599,1921.51336 C598.918628,1922.21488 599.630393,1922.87602 600.377802,1923.49781 C602.244479,1925.05076 604.246936,1926.29427 606.248577,1927.25579 C606.947879,1927.59172 607.596105,1927.86804 608.176057,1928.08838 C608.519451,1928.21884 608.760475,1928.30072 608.931995,1928.35496 C610.084585,1928.79873 611.984824,1928.65267 613.071288,1928.02622 C613.17173,1927.97161 613.350209,1927.8727 613.580442,1927.7419 C613.964158,1927.52391 614.347663,1927.29855 614.704093,1927.07867 C614.834925,1926.99796 614.959834,1926.91936 615.077967,1926.8433 C615.558687,1926.53379 615.910287,1926.27615 616.067246,1926.11777 C616.78634,1925.39205 616.790025,1924.6291 616.081322,1923.91492 Z" id="Shape"></path>
        </g>
    </g>
</svg>