<?xml version="1.0" encoding="UTF-8"?>
<svg width="25px" height="33px" viewBox="0 0 25 33" version="1.1" xmlns="http://www.w3.org/2000/svg" xmlns:xlink="http://www.w3.org/1999/xlink">
    <!-- Generator: Sketch 61.2 (89653) - https://sketch.com -->
    <title>pdf icon copy</title>
    <desc>Created with Sketch.</desc>
    <g id="Page-1" stroke="none" stroke-width="1" fill="none" fill-rule="evenodd">
        <g id="pdf-icon-copy">
            <g id="PDF" transform="translate(2.154000, 14.300000)" fill="#FFFFFF" fill-rule="nonzero">
                <path d="M2.395,8 L2.395,5.565 L3.275,5.565 C3.77833333,5.565 4.21416667,5.50416667 4.5825,5.3825 C4.95083333,5.26083333 5.255,5.09166667 5.495,4.875 C5.735,4.65833333 5.91333333,4.39833333 6.03,4.095 C6.14666667,3.79166667 6.205,3.45833333 6.205,3.095 C6.205,2.75833333 6.14833333,2.445 6.035,2.155 C5.92166667,1.865 5.74583333,1.61333333 5.5075,1.4 C5.26916667,1.18666667 4.96583333,1.01916667 4.5975,0.8975 C4.22916667,0.775833333 3.78833333,0.715 3.275,0.715 L3.275,0.715 L0.705,0.715 L0.705,8 L2.395,8 Z M3.275,4.29 L2.395,4.29 L2.395,1.98 L3.275,1.98 C3.48833333,1.98 3.6725,2.00666667 3.8275,2.06 C3.9825,2.11333333 4.11083333,2.18916667 4.2125,2.2875 C4.31416667,2.38583333 4.39,2.50333333 4.44,2.64 C4.49,2.77666667 4.515,2.92833333 4.515,3.095 C4.515,3.47166667 4.41833333,3.765 4.225,3.975 C4.03166667,4.185 3.715,4.29 3.275,4.29 L3.275,4.29 Z M9.895,8 C10.4616667,8 10.9775,7.90916667 11.4425,7.7275 C11.9075,7.54583333 12.305,7.2925 12.635,6.9675 C12.965,6.6425 13.2208333,6.2575 13.4025,5.8125 C13.5841667,5.3675 13.675,4.88166667 13.675,4.355 C13.675,3.83166667 13.5841667,3.3475 13.4025,2.9025 C13.2208333,2.4575 12.965,2.07333333 12.635,1.75 C12.305,1.42666667 11.9075,1.17333333 11.4425,0.99 C10.9775,0.806666667 10.4616667,0.715 9.895,0.715 L9.895,0.715 L7.065,0.715 L7.065,8 L9.895,8 Z M9.895,6.7 L8.765,6.7 L8.765,2.015 L9.895,2.015 C10.2183333,2.015 10.5066667,2.06916667 10.76,2.1775 C11.0133333,2.28583333 11.2275,2.44083333 11.4025,2.6425 C11.5775,2.84416667 11.7116667,3.09 11.805,3.38 C11.8983333,3.67 11.945,3.995 11.945,4.355 C11.945,4.71833333 11.8983333,5.045 11.805,5.335 C11.7116667,5.625 11.5775,5.87083333 11.4025,6.0725 C11.2275,6.27416667 11.0133333,6.42916667 10.76,6.5375 C10.5066667,6.64583333 10.2183333,6.7 9.895,6.7 L9.895,6.7 Z M16.375,8 L16.375,5.165 L18.865,5.165 L18.865,3.86 L16.375,3.86 L16.375,2.015 L19.365,2.015 L19.365,0.715 L14.675,0.715 L14.675,8 L16.375,8 Z"></path>
            </g>
            <polyline id="Path_284" stroke="#FFFFFF" stroke-width="1.5" points="0.75 14.572 0.75 0.75 18.028 0.75 23.557 6.97 23.557 14.57"></polyline>
            <polyline id="Path_285" stroke="#FFFFFF" stroke-width="1.5" points="23.556 13.837 23.556 31.85 0.749 31.85 0.749 13.574"></polyline>
            <polyline id="Path_286" stroke="#FFFFFF" stroke-width="1.5" points="17.337 0.75 17.337 7.661 23.557 7.661"></polyline>
        </g>
    </g>
</svg>