<?xml version="1.0" encoding="UTF-8"?>
<svg width="27px" height="27px" viewBox="0 0 27 27" version="1.1" xmlns="http://www.w3.org/2000/svg" xmlns:xlink="http://www.w3.org/1999/xlink">
    <!-- Generator: Sketch 60.1 (88133) - https://sketch.com -->
    <title>Group 4</title>
    <desc>Created with Sketch.</desc>
    <g id="Page-1" stroke="none" stroke-width="1" fill="none" fill-rule="evenodd">
        <g id="04_Our-Network-Copy" transform="translate(-628.000000, -1948.000000)" fill="#ED6D00" fill-rule="nonzero" stroke="#ED6D00" stroke-width="0.45">
            <g id="Group-4" transform="translate(628.000000, 1948.000000)">
                <g id="Group" transform="translate(13.000000, 13.000000) scale(-1, 1) translate(-13.000000, -13.000000) ">
                    <path d="M12.9327586,25.978931 C5.87644828,25.978931 0.13537931,20.2383103 0.13537931,13.182 C0.13537931,6.12568966 5.87644828,0.38462069 12.9327586,0.38462069 C19.989069,0.38462069 25.7301379,6.12568966 25.7301379,13.182 C25.7301379,20.2383103 19.9895172,25.978931 12.9327586,25.978931 Z M12.9327586,1.28117241 C6.37044828,1.28117241 1.03193103,6.61968966 1.03193103,13.182 C1.03193103,19.7438621 6.37044828,25.0823793 12.9327586,25.0823793 C19.495069,25.0823793 24.8335862,19.7438621 24.8335862,13.182 C24.8335862,6.61968966 19.495069,1.28117241 12.9327586,1.28117241 Z" id="Shape"></path>
                    <path d="M18.2256687,14.5652624 L11.8381859,14.5652624 C11.5902894,14.5652624 11.38991,14.3644348 11.38991,14.1169865 L11.38991,4.32305547 C11.38991,4.0756072 11.5902894,3.87477961 11.8381859,3.87477961 C12.0860825,3.87477961 12.2864618,4.0756072 12.2864618,4.32305547 L12.2864618,13.6687106 L18.2256687,13.6687106 C18.4735652,13.6687106 18.6739445,13.8695382 18.6739445,14.1169865 C18.6739445,14.3644348 18.4731169,14.5652624 18.2256687,14.5652624 Z" id="Path"></path>
                </g>
            </g>
        </g>
    </g>
</svg>