<svg xmlns="http://www.w3.org/2000/svg" width="50" height="41" viewBox="0 0 50 41"><g><g><g><path fill="#fff" d="M16 40.995c18.869 0 29-16.445 29-30 0-.444.02-.56 0-1a19.19 19.19 0 0 0 5-5c-1.838.817-3.925.752-6 1 2.118-1.27 4.233-2.605 5-5-1.982 1.175-4.663 1.539-7 2a8.983 8.983 0 0 0-7-3c-5.665 0-11 4.337-11 10 0 .805.824 2.249 1 3a31.271 31.271 0 0 1-22-11 9.437 9.437 0 0 0-1 5 11.5 11.5 0 0 0 5 9c-1.683-.052-3.618-1.231-5-2 0 .043 0-.046 0 0a10 10 0 0 0 8 10c-.862.235-1.064 1-2 1-.665.06-1.335.06-2 0 1.306 4.076 4.51 6.917 9 7a21.032 21.032 0 0 1-13 4c-.666.047-1.334.047-2 0a30.3 30.3 0 0 0 16 5"/></g></g></g></svg>