<?xml version="1.0" encoding="UTF-8"?>
<svg width="28px" height="18px" viewBox="0 0 28 18" version="1.1" xmlns="http://www.w3.org/2000/svg" xmlns:xlink="http://www.w3.org/1999/xlink">
    <!-- Generator: Sketch 60.1 (88133) - https://sketch.com -->
    <title>Group 9</title>
    <desc>Created with Sketch.</desc>
    <g id="Page-1" stroke="none" stroke-width="1" fill="none" fill-rule="evenodd">
        <g id="04_Our-Network-Copy" transform="translate(-693.000000, -1953.000000)" fill="#ED6D00" fill-rule="nonzero" stroke="#ED6D00" stroke-width="0.6">
            <g id="Group-9" transform="translate(694.000000, 1954.000000)">
                <g id="Group">
                    <path d="M0.5909085,0.109331321 C0.274742591,0.109331321 -5.90909091e-07,0.364908679 -5.90909091e-07,0.694236981 L-5.90909091e-07,15.2131019 C-5.90909091e-07,15.5424302 0.274742591,15.8074566 0.5909085,15.8074566 L25.4090915,15.8074566 C25.7252574,15.8074566 25.9999994,15.5424302 25.9999994,15.2131019 L25.9999994,0.694236981 C25.9999994,0.364908679 25.7252574,0.109331321 25.4090915,0.109331321 L0.5909085,0.109331321 L0.5909085,0.109331321 Z M1.05255623,0.713104906 L24.9474438,0.713104906 L12.9999994,10.8829283 L1.05255623,0.713104906 Z M0.5909085,1.09989736 L12.8153403,11.5055698 C12.9232834,11.5938605 13.0767154,11.5938605 13.1846585,11.5055698 L25.4090915,1.09989736 L25.4090915,15.203683 L0.5909085,15.203683 L0.5909085,1.09989736 L0.5909085,1.09989736 Z" id="Shape"></path>
                </g>
            </g>
        </g>
    </g>
</svg>