<?xml version="1.0" encoding="UTF-8"?>
<svg width="20px" height="28px" viewBox="0 0 20 28" version="1.1" xmlns="http://www.w3.org/2000/svg" xmlns:xlink="http://www.w3.org/1999/xlink">
    <!-- Generator: Sketch 60.1 (88133) - https://sketch.com -->
    <title>Group</title>
    <desc>Created with Sketch.</desc>
    <g id="Page-1" stroke="none" stroke-width="1" fill="none" fill-rule="evenodd">
        <g id="04_Our-Network-Copy" transform="translate(-601.000000, -1947.000000)" fill="#ED6D00" fill-rule="nonzero" stroke="#ED6D00" stroke-width="0.3">
            <g id="Group" transform="translate(602.000000, 1948.000000)">
                <path d="M9,26 C8.84302326,26 8.68604651,25.9458333 8.58139535,25.7833333 C8.21511628,25.2958333 0,14.2458333 0,9.31666667 C0,4.17083333 4.02906977,0 9,0 C13.9709302,0 18,4.17083333 18,9.31666667 C18,14.2458333 9.78488372,25.2958333 9.41860465,25.7833333 C9.31395349,25.9458333 9.15697674,26 9,26 Z M9,1.08333333 C4.60465116,1.08333333 1.04651163,4.76666667 1.04651163,9.31666667 C1.04651163,13.325 7.3255814,22.2083333 9,24.5375 C10.6744186,22.2083333 16.9534884,13.2708333 16.9534884,9.31666667 C16.9534884,4.76666667 13.3953488,1.08333333 9,1.08333333 Z" id="Shape"></path>
                <path d="M9,14 C6.25274725,14 4,11.7472527 4,9 C4,6.25274725 6.25274725,4 9,4 C11.7472527,4 14,6.25274725 14,9 C14,11.7472527 11.7472527,14 9,14 Z M9,5.0989011 C6.85714286,5.0989011 5.0989011,6.85714286 5.0989011,9 C5.0989011,11.1428571 6.85714286,12.9010989 9,12.9010989 C11.1428571,12.9010989 12.9010989,11.1428571 12.9010989,9 C12.9010989,6.85714286 11.1428571,5.0989011 9,5.0989011 Z" id="Shape"></path>
            </g>
        </g>
    </g>
</svg>