<?xml version="1.0" encoding="UTF-8"?>
<svg version="1.1" xmlns="http://www.w3.org/2000/svg" width="89" height="103">
<path d="M0 0 C0 3.96 0 7.92 0 12 C-1.4025 12.53625 -2.805 13.0725 -4.25 13.625 C-8.68732022 15.61969442 -11.01385701 17.39575944 -13 22 C-13 27.37711074 -11.61280536 31.0166505 -8 35 C-5.30204743 36.07814931 -2.89544956 36.51742507 0 37 C0 40.63 0 44.26 0 48 C5.5879529 46.06570861 8.24551435 44.50897131 11 39 C11.79682803 35.26774656 11.79682803 35.26774656 12 32 C7.71 32 3.42 32 -1 32 C-1 27.38 -1 22.76 -1 18 C7.58 18 16.16 18 25 18 C25.1546875 23.630625 25.1546875 23.630625 25.3125 29.375 C25.35802002 30.53692871 25.40354004 31.69885742 25.45043945 32.89599609 C25.55835913 41.10206941 23.83068048 47.64910366 18.3190918 53.90917969 C12.86161793 59.22484584 6.46435887 61 -1 61 C-1 57.7 -1 54.4 -1 51 C-2.60875 50.835 -4.2175 50.67 -5.875 50.5 C-12.74216366 49.2417584 -17.25080602 46.03167392 -22 41 C-26.40205366 34.54831289 -27.78765673 27.71198232 -27 20 C-25.36547196 11.72152704 -22.01729769 7.38646272 -15.2421875 2.4609375 C-10.19983365 -0.82449864 -5.97543477 -0.0694818 0 0 Z " fill="#F47C1F" transform="translate(45,0)"/>
<path d="M0 0 C2.33984375 1.52734375 2.33984375 1.52734375 4 3 C4.50402344 2.5153125 5.00804688 2.030625 5.52734375 1.53125 C8.9372369 -0.58040579 11.57767703 -0.46883814 15.5625 -0.5 C16.23474609 -0.52835938 16.90699219 -0.55671875 17.59960938 -0.5859375 C19.56640625 -0.59375 19.56640625 -0.59375 23 0 C24.96995334 2.41250748 26 3.86061407 26 7 C26.66 7 27.32 7 28 7 C28.28875 6.401875 28.5775 5.80375 28.875 5.1875 C30 3 30 3 32 0 C34.6015625 -0.29296875 34.6015625 -0.29296875 37.625 -0.1875 C39.12933594 -0.14689453 39.12933594 -0.14689453 40.6640625 -0.10546875 C41.43492188 -0.07066406 42.20578125 -0.03585938 43 0 C51 15.14285714 51 15.14285714 51 23 C49.35 22.67 47.7 22.34 46 22 C45.505 20.515 45.505 20.515 45 19 C42.03 18.67 39.06 18.34 36 18 C35.505 20.475 35.505 20.475 35 23 C31.7 23 28.4 23 25 23 C24.505 20.03 24.505 20.03 24 17 C23.38125 17.804375 22.7625 18.60875 22.125 19.4375 C20 22 20 22 18 23 C16.37834248 23.12148305 14.75115673 23.17543652 13.125 23.1875 C11.82949219 23.20876953 11.82949219 23.20876953 10.5078125 23.23046875 C8 23 8 23 5.9296875 21.86328125 C4.97449219 21.43595703 4.97449219 21.43595703 4 21 C2.03232374 21.84551984 2.03232374 21.84551984 0 23 C-4.9811124 23.63841381 -9.4805669 23.71320329 -14.0625 21.5625 C-16.80640545 17.93346376 -17.68606829 14.51276827 -18 10 C-17.37036484 6.29214849 -16.42538748 4.52144271 -14.0625 1.625 C-9.54724199 -0.77085119 -5.01450779 -0.82952364 0 0 Z M36 2 C37 4 37 4 37 4 Z M-11 5 C-12.49084832 9.47254497 -12.49084832 13.52745503 -11 18 C-9.52168779 18.19412181 -8.04230684 18.38012131 -6.5625 18.5625 C-5.73878906 18.66691406 -4.91507813 18.77132812 -4.06640625 18.87890625 C-3.38449219 18.91886719 -2.70257813 18.95882812 -2 19 C-0.70366379 17.93354885 -0.70366379 17.93354885 -0.9375 15.4375 C-0.958125 14.633125 -0.97875 13.82875 -1 13 C-2.65 13 -4.3 13 -6 13 C-6 12.01 -6 11.02 -6 10 C-3.03 10 -0.06 10 3 10 C3 8.68 3 7.36 3 6 C-1.01189446 3.3254037 -6.65065264 2.82532632 -11 5 Z M8.0625 6.0625 C6.69741357 9.83656247 6.99903861 12.13914892 8 16 C9.02421261 18.10938785 9.02421261 18.10938785 11 19 C14.64734979 18.77669287 16.38372835 18.61627165 19 16 C19.35639561 13.89582032 19.35639561 13.89582032 19.3125 11.5625 C19.32925781 10.78003906 19.34601562 9.99757813 19.36328125 9.19140625 C18.91456302 6.4846221 18.17731847 5.62661497 16 4 C12.22793897 3.37132316 10.73593365 3.21658676 8.0625 6.0625 Z M35 4 C30.80720136 8.9265384 29.4453097 11.79258598 29.82421875 18.27734375 C29.88222656 18.84582031 29.94023438 19.41429687 30 20 C32.49551158 17.50448842 33.07575992 15.33923374 34.1875 12 C34.55230469 10.9275 34.91710938 9.855 35.29296875 8.75 C36.30443739 6.06233849 36.30443739 6.06233849 35 4 Z M40 8 C39.34 9.98 38.68 11.96 38 14 C39.65 14 41.3 14 43 14 C42.34 12.02 41.68 10.04 41 8 C40.67 8 40.34 8 40 8 Z " fill="#211D1E" transform="translate(18,62)"/>
<path d="M0 0 C1.98 0 3.96 0 6 0 C7.32 2.97 8.64 5.94 10 9 C12.6465335 6.3534665 13.59941997 3.43778736 15 0 C15.99 0 16.98 0 18 0 C18 7.59 18 15.18 18 23 C17.67 23 17.34 23 17 23 C16.67 19.37 16.34 15.74 16 12 C15.01 14.31 14.02 16.62 13 19 C11.35 19 9.7 19 8 19 C7.01 16.69 6.02 14.38 5 12 C4.67 15.63 4.34 19.26 4 23 C2.68 23 1.36 23 0 23 C0 15.41 0 7.82 0 0 Z " fill="#211D1E" transform="translate(71,62)"/>
<path d="M0 0 C1.65 0 3.3 0 5 0 C5.33 2.31 5.66 4.62 6 7 C4.02 7 2.04 7 0 7 C-1.125 2.25 -1.125 2.25 0 0 Z " fill="#2A1522" transform="translate(25,90)"/>
<path d="M0 0 C1.65 0 3.3 0 5 0 C5.38133299 1.9914056 5.71325582 3.99279077 6 6 C5 7 5 7 2.4375 7.0625 C1.2309375 7.0315625 1.2309375 7.0315625 0 7 C-1.125 2.25 -1.125 2.25 0 0 Z M1 2 C1 2.99 1 3.98 1 5 C1.66 5 2.32 5 3 5 C3 4.01 3 3.02 3 2 C2.34 2 1.68 2 1 2 Z " fill="#231D20" transform="translate(14,90)"/>
<path d="M0 0 C1.32 0 2.64 0 4 0 C4 2.31 4 4.62 4 7 C2.35 7 0.7 7 -1 7 C-1.04254356 5.00045254 -1.04080783 2.99958364 -1 1 C-0.67 0.67 -0.34 0.34 0 0 Z " fill="#201B1C" transform="translate(43,90)"/>
<path d="M0 0 C1.32 0 2.64 0 4 0 C4 2.31 4 4.62 4 7 C2.35 7 0.7 7 -1 7 C-1.04254356 5.00045254 -1.04080783 2.99958364 -1 1 C-0.67 0.67 -0.34 0.34 0 0 Z " fill="#221C1E" transform="translate(79,90)"/>
<path d="M0 0 C1.65 0 3.3 0 5 0 C4.67 0.99 4.34 1.98 4 3 C3.34 2.67 2.68 2.34 2 2 C2 2.99 2 3.98 2 5 C2.99 5 3.98 5 5 5 C5 5.66 5 6.32 5 7 C3.35 7 1.7 7 0 7 C-1.125 2.25 -1.125 2.25 0 0 Z " fill="#231D1E" transform="translate(69,90)"/>
<path d="M0 0 C1.98 0 3.96 0 6 0 C6 0.66 6 1.32 6 2 C5.01 2 4.02 2 3 2 C3 3.65 3 5.3 3 7 C2.34 7 1.68 7 1 7 C0.67 4.69 0.34 2.38 0 0 Z " fill="#1F1B1C" transform="translate(52,90)"/>
<path d="M0 0 C1.65 0 3.3 0 5 0 C5.33 1.32 5.66 2.64 6 4 C5.01 4.495 5.01 4.495 4 5 C1.375 4.0625 1.375 4.0625 -1 3 C-0.67 2.01 -0.34 1.02 0 0 Z " fill="#211D1F" transform="translate(25,90)"/>
<path d="M0 0 C0.66 0 1.32 0 2 0 C2 1.65 2 3.3 2 5 C2.66 5 3.32 5 4 5 C4 5.66 4 6.32 4 7 C2.68 7 1.36 7 0 7 C0 4.69 0 2.38 0 0 Z " fill="#181317" transform="translate(5,90)"/>
<path d="M0 0 C0.66 0 1.32 0 2 0 C2 2.31 2 4.62 2 7 C1.34 7 0.68 7 0 7 C0 4.69 0 2.38 0 0 Z " fill="#241E20" transform="translate(62,90)"/>
<path d="M0 0 C0.33 0 0.66 0 1 0 C1 2.31 1 4.62 1 7 C0.67 7 0.34 7 0 7 C0 4.69 0 2.38 0 0 Z " fill="#231F20" transform="translate(36,90)"/>
</svg>
